<?xml version="1.0" standalone="no"?>
<!DOCTYPE svg PUBLIC "-//W3C//DTD SVG 20010904//EN"
 "http://www.w3.org/TR/2001/REC-SVG-20010904/DTD/svg10.dtd">
<svg version="1.0" xmlns="http://www.w3.org/2000/svg"
 width="128.000000pt" height="128.000000pt" viewBox="0 0 128.000000 128.000000"
 preserveAspectRatio="xMidYMid meet">
<metadata>
Created by potrace 1.11, written by Peter Selinger 2001-2013
</metadata>
<g transform="translate(0.000000,128.000000) scale(0.100000,-0.100000)"
fill="#000000" stroke="none">
<path d="M2 1188 c3 -8 31 -12 84 -12 l79 -1 0 -528 c0 -342 -3 -531 -10 -535
-5 -4 -41 -7 -79 -7 -46 0 -71 -5 -74 -13 -3 -9 40 -12 183 -12 149 0 185 3
177 13 -7 8 -37 12 -91 11 l-81 -2 1 527 c0 289 3 519 6 511 6 -16 174 -499
294 -844 38 -110 71 -202 74 -204 2 -3 7 1 10 9 11 31 118 340 145 419 72 214
220 633 224 637 2 3 4 -232 4 -521 0 -478 -2 -526 -17 -530 -9 -3 -43 -3 -76
-2 -64 3 -85 -1 -85 -15 0 -5 112 -9 256 -9 199 0 255 3 252 12 -3 9 -30 13
-89 12 l-84 0 1 530 c1 292 2 534 3 538 0 4 34 7 74 6 94 0 97 0 97 12 0 6
-65 10 -174 10 l-174 0 -17 -47 c-9 -27 -40 -118 -70 -203 -122 -355 -195
-566 -201 -580 -4 -9 -17 17 -34 65 -44 126 -219 633 -243 703 l-21 62 -174 0
c-131 0 -173 -3 -170 -12z"/>
</g>
</svg>
